<svg xmlns="http://www.w3.org/2000/svg" xmlns:xlink="http://www.w3.org/1999/xlink" version="1.1" x="0px" y="0px" viewBox="-489 491 100 125" enable-background="new -489 491 100 100" xml:space="preserve"><path d="M-447.3,555.6c-12.5-10.4-22.9-18.8-22.9-29.2c0-14.6,20.8-14.6,22.9-2.1c2.1-12.5,22.9-12.5,22.9,2.1  C-424.4,536.8-434.8,545.2-447.3,555.6z M-393.2,591v-83.3l-8.3-8.3v83.3h-66.7c-4.2,0-8.3-2.1-8.3-8.3h66.7V491h-62.5  c-12.5,0-12.5,0-12.5,12.5v70.8c0,12.5,10.4,16.7,20.8,16.7H-393.2z"/><text x="-489" y="606" fill="#000000" font-size="5px" font-weight="bold" font-family="'Helvetica Neue', Helvetica, Arial-Unicode, Arial, Sans-serif">Created by Thomas Helbig</text><text x="-489" y="611" fill="#000000" font-size="5px" font-weight="bold" font-family="'Helvetica Neue', Helvetica, Arial-Unicode, Arial, Sans-serif">from the Noun Project</text></svg>